<svg id="Layer_1" data-name="Layer 1" xmlns="http://www.w3.org/2000/svg" xmlns:xlink="http://www.w3.org/1999/xlink" viewBox="0 0 84 90"><defs><style>.cls-1,.cls-2{fill:#fff;}.cls-1,.cls-5{fill-rule:evenodd;}.cls-2{opacity:0.05;}.cls-3{mask:url(#mask);}.cls-4,.cls-5{fill:#d3dde6;}.cls-6{fill:#8da2b2;}</style><mask id="mask" x="9.83" y="-7.54" width="59.25" height="59.25" maskUnits="userSpaceOnUse"><g id="mask0"><path class="cls-1" d="M9.83-7.54H69.08V51.72H9.83Z"/></g></mask></defs><rect class="cls-2" width="84" height="90"/><g class="cls-3"><path class="cls-4" d="M30.27,21.93a3.58,3.58,0,0,0,1,.35,5.34,5.34,0,0,0,1.39.15A4.26,4.26,0,0,0,34,22.25a3.47,3.47,0,0,0,1-.5,2.24,2.24,0,0,0,.66-.8,2.59,2.59,0,0,0,.23-1.07,2.21,2.21,0,0,0-.41-1.27,2.75,2.75,0,0,0-1.39-.86l-1.28-.42a2.54,2.54,0,0,1-1-.5.91.91,0,0,1-.26-.65.88.88,0,0,1,.41-.8,2.3,2.3,0,0,1,1.22-.27,4.1,4.1,0,0,1,1.74.36,1.24,1.24,0,0,0,.36.12c.15,0,.21-.09.21-.3v-.36a.44.44,0,0,0-.09-.29.71.71,0,0,0-.27-.24,1.12,1.12,0,0,0-.38-.15c-.15-.06-.33-.09-.51-.15a3.37,3.37,0,0,0-.59-.08A2.18,2.18,0,0,0,33,14a5,5,0,0,0-1.13.14,3.26,3.26,0,0,0-.95.48,2.73,2.73,0,0,0-.65.74,2,2,0,0,0-.23,1,2.08,2.08,0,0,0,.44,1.3,2.69,2.69,0,0,0,1.45.92l1.31.41a2.28,2.28,0,0,1,.91.48.8.8,0,0,1,.24.62,1,1,0,0,1-.47.86,2.4,2.4,0,0,1-1.34.29,4.25,4.25,0,0,1-1.06-.11,4,4,0,0,1-1-.33l-.24-.09a.36.36,0,0,0-.17,0c-.15,0-.21.09-.21.3v.44a.88.88,0,0,0,.06.27,1,1,0,0,0,.32.27"/><path class="cls-5" d="M14,17.48a5.27,5.27,0,0,1,1,.06c.35.06.68.12,1.06.21V17.1a2,2,0,0,0-.41-1.45,2.14,2.14,0,0,0-1.48-.42,3.61,3.61,0,0,0-1,.12,6.11,6.11,0,0,0-1,.3h0l-.2.07-.12,0a.33.33,0,0,1-.15,0c-.12,0-.18-.12-.18-.29v-.45c0-.15,0-.26.06-.32a.55.55,0,0,1,.24-.18,5.44,5.44,0,0,1,1.12-.42A5.94,5.94,0,0,1,14.36,14a3.17,3.17,0,0,1,2.37.74,3,3,0,0,1,.74,2.22v3a2.94,2.94,0,0,0,.09.8,3.23,3.23,0,0,0,.23.51l.07.14a.25.25,0,0,1,0,.07.43.43,0,0,1,0,.14.36.36,0,0,1-.18.27l-.56.38a.48.48,0,0,1-.24.09.37.37,0,0,1-.27-.12,2.64,2.64,0,0,1-.32-.41,4.51,4.51,0,0,1-.27-.54,3.37,3.37,0,0,1-2.66,1.25,2.44,2.44,0,0,1-1.81-.65A2.32,2.32,0,0,1,11,20.06a2.3,2.3,0,0,1,.83-1.87A3.34,3.34,0,0,1,14,17.48Zm1.89,2.43a2.86,2.86,0,0,0,.09-.77v-.38a6.47,6.47,0,0,0-.83-.15c-.29,0-.59-.06-.86-.06A2.15,2.15,0,0,0,13,18.9a1.26,1.26,0,0,0-.44,1,1.13,1.13,0,0,0,1.27,1.27,2.77,2.77,0,0,0,.95-.17,1.86,1.86,0,0,0,.86-.57A1.3,1.3,0,0,0,15.9,19.91Z"/><path class="cls-4" d="M20.56,21.78a.8.8,0,0,0,.17.35.52.52,0,0,0,.36.09h.77a.47.47,0,0,0,.35-.09.91.91,0,0,0,.18-.35l1.4-5.84,1.42,5.84a.52.52,0,0,0,.17.35.58.58,0,0,0,.36.09h.77a.64.64,0,0,0,.36-.09.63.63,0,0,0,.17-.35l2.2-7a1.22,1.22,0,0,0,.06-.21c0-.06,0-.09,0-.15s-.06-.21-.21-.21h-.83a.52.52,0,0,0-.36.09.85.85,0,0,0-.17.36l-1.58,6.07-1.45-6.1a.55.55,0,0,0-.17-.36.58.58,0,0,0-.36-.09h-.74a.52.52,0,0,0-.36.09,1,1,0,0,0-.17.36l-1.43,6-1.51-6a1.2,1.2,0,0,0-.17-.36.52.52,0,0,0-.36-.09h-.89c-.15,0-.21.06-.21.21a1.47,1.47,0,0,0,.09.36l2.11,7"/><path class="cls-6" d="M34,26.16a26.64,26.64,0,0,1-10.25,2.11,26.81,26.81,0,0,1-13.45-3.59c-.33-.21-.6.15-.3.42a19.94,19.94,0,0,0,13.45,5.12,19.36,19.36,0,0,0,11-3.38c.45-.35,0-.88-.47-.68"/><path class="cls-6" d="M32.11,24.92c-.27.18-.21.44.06.41.95-.12,3.11-.38,3.46.12s-.41,2.49-.77,3.41c-.11.26.12.38.39.18,1.6-1.34,2-4.15,1.69-4.54s-3.14-.77-4.83.42"/><path class="cls-5" d="M44,20.24a.11.11,0,0,0,.12.12h.21a.11.11,0,0,0,.11-.12V18.46a1.83,1.83,0,0,0,1.22.5,1.37,1.37,0,0,0,1.15-.53A2.3,2.3,0,0,0,47.19,17a2.13,2.13,0,0,0-.42-1.37,1.34,1.34,0,0,0-1.09-.5,1.54,1.54,0,0,0-.65.12,2.8,2.8,0,0,0-.66.38l0-.29c0-.09,0-.12-.11-.12h-.15a.11.11,0,0,0-.12.12Zm2.49-2a1.06,1.06,0,0,1-.89.39,1.94,1.94,0,0,1-.43-.06l-.16,0a2.77,2.77,0,0,1-.57-.39V16a1.83,1.83,0,0,1,1.19-.47c.77,0,1.15.5,1.15,1.51A1.81,1.81,0,0,1,46.45,18.19Z"/><path class="cls-5" d="M48.14,18.64a1.1,1.1,0,0,0,.8.29,1.92,1.92,0,0,0,1.3-.5l0,.3c0,.09.06.11.12.11h.15c.09,0,.12-.05.12-.11V16.18a1,1,0,0,0-.3-.8,1.44,1.44,0,0,0-1-.27,3.22,3.22,0,0,0-1.21.24l-.06.06a.11.11,0,0,0,0,.09v.15s0,.08.06.08h.06l.06,0a3.52,3.52,0,0,1,1-.17,1.07,1.07,0,0,1,.68.17.76.76,0,0,1,.21.63v.59a3.4,3.4,0,0,0-1-.18,1.39,1.39,0,0,0-1,.3,1,1,0,0,0-.36.83A1,1,0,0,0,48.14,18.64Zm1.45-.18a1.51,1.51,0,0,1-.59.12.73.73,0,0,1-.54-.18.69.69,0,0,1-.17-.5c0-.51.32-.77,1-.77a3.85,3.85,0,0,1,1,.11v.89A4.43,4.43,0,0,1,49.59,18.46Z"/><path class="cls-4" d="M51.87,18.87a.11.11,0,0,1-.12-.11V15.35a.11.11,0,0,1,.12-.12H52c.09,0,.12,0,.12.12l0,.41a1.4,1.4,0,0,1,1.12-.53h.18a.11.11,0,0,1,.12.12v.18s0,0,0,.06,0,0-.06,0h-.27a1.32,1.32,0,0,0-.59.11,1.75,1.75,0,0,0-.5.39v2.64a.11.11,0,0,1-.12.11h-.15"/><path class="cls-4" d="M55.49,18.9a.88.88,0,0,1-.66-.23A.91.91,0,0,1,54.6,18v-2.4H54c-.06,0-.11,0-.11-.12v-.06a.11.11,0,0,1,0-.09s0,0,.08,0l.6-.06.06-.95s0-.06,0-.09,0,0,.08,0h.12a.11.11,0,0,1,.12.12v.95h1a.11.11,0,0,1,.12.12v.15a.11.11,0,0,1-.12.12H55V18a.54.54,0,0,0,.12.42.58.58,0,0,0,.41.12,1.24,1.24,0,0,0,.36,0c.06,0,.09,0,.12,0h.06a.08.08,0,0,1,.09.09v.12a.13.13,0,0,1-.09.14c-.18,0-.39,0-.62,0"/><path class="cls-4" d="M57.08,18.87a.1.1,0,0,1-.11-.11V15.35a.11.11,0,0,1,.11-.12h.15c.09,0,.12,0,.12.12l0,.3a2.64,2.64,0,0,1,.74-.39,2.38,2.38,0,0,1,.74-.15,1.07,1.07,0,0,1,.8.27,1.1,1.1,0,0,1,.27.83v2.52c0,.06,0,.11-.12.11H59.6c-.06,0-.12,0-.12-.11V16.42a1.06,1.06,0,0,0-.17-.69.74.74,0,0,0-.57-.2,2.31,2.31,0,0,0-1.39.47v2.79a.11.11,0,0,1-.12.11h-.15"/><path class="cls-5" d="M61.32,18.49a1.59,1.59,0,0,0,1.27.47,4.86,4.86,0,0,0,1.09-.16h.07a.14.14,0,0,0,.09-.15v-.12s0,0,0,0v0l0,0h0a.3.3,0,0,0-.12,0,2.55,2.55,0,0,1-1,.18,1.27,1.27,0,0,1-1-.36,1.68,1.68,0,0,1-.33-1.12h2.43a.13.13,0,0,0,.12-.12,2,2,0,0,0,0-.45,1.42,1.42,0,0,0-.36-1.06,1.23,1.23,0,0,0-1-.39,1.61,1.61,0,0,0-1.22.5,2,2,0,0,0-.44,1.4A2.06,2.06,0,0,0,61.32,18.49Zm2.16-1.93v.24H61.29c.06-.86.45-1.27,1.22-1.27a1,1,0,0,1,.74.26A1.2,1.2,0,0,1,63.48,16.56Z"/><path class="cls-4" d="M64.88,18.87a.11.11,0,0,1-.12-.11V15.35a.11.11,0,0,1,.12-.12H65c.08,0,.11,0,.11.12l0,.41a1.38,1.38,0,0,1,.54-.41,1.27,1.27,0,0,1,.59-.12h.18a.11.11,0,0,1,.12.12v.18s0,0,0,.06,0,0-.06,0h-.27a1.29,1.29,0,0,0-.59.11,1.93,1.93,0,0,0-.51.39v2.64a.1.1,0,0,1-.11.11h-.15"/><path class="cls-4" d="M44.08,26.84a.11.11,0,0,1-.12-.11V23.35a.11.11,0,0,1,.12-.12h.15c.08,0,.11,0,.11.12l0,.29a2.89,2.89,0,0,1,.74-.38,2.38,2.38,0,0,1,.75-.15,1.09,1.09,0,0,1,.8.27,1.15,1.15,0,0,1,.26.83v2.52a.11.11,0,0,1-.12.11h-.2a.11.11,0,0,1-.12-.11V24.38a1,1,0,0,0-.18-.68.73.73,0,0,0-.56-.2,2.31,2.31,0,0,0-1.4.47v2.79a.1.1,0,0,1-.11.11h-.15"/><path class="cls-5" d="M48.32,26.49a1.58,1.58,0,0,0,1.27.47,5.23,5.23,0,0,0,1.16-.17.14.14,0,0,0,.08-.15v-.12s0,0,0,0l0,0s0,0,0,0h0a.3.3,0,0,0-.12,0,2.59,2.59,0,0,1-1,.18,1.31,1.31,0,0,1-1-.36,1.68,1.68,0,0,1-.32-1.12h2.43a.13.13,0,0,0,.11-.12,2,2,0,0,0,0-.45,1.41,1.41,0,0,0-.35-1.06,1.25,1.25,0,0,0-1-.39,1.59,1.59,0,0,0-1.21.5,2,2,0,0,0-.45,1.4A2.06,2.06,0,0,0,48.32,26.49Zm2.16-2v.24H48.29c.05-.86.44-1.27,1.21-1.27a1,1,0,0,1,.74.26A1.14,1.14,0,0,1,50.48,24.53Z"/><path class="cls-4" d="M52.91,26.9A.8.8,0,0,1,52,26V23.59h-.57c-.06,0-.11,0-.11-.12v-.06a.11.11,0,0,1,0-.09s0,0,.08,0l.6-.06.06-.95s0-.06,0-.09,0,0,.08,0h.12a.11.11,0,0,1,.12.12v.95h1a.11.11,0,0,1,.12.12v.15c0,.06,0,.11-.12.11h-1V26a.54.54,0,0,0,.12.42.58.58,0,0,0,.41.12,1.24,1.24,0,0,0,.36,0c.06,0,.09,0,.12,0h.06a.08.08,0,0,1,.09.09v.12a.13.13,0,0,1-.09.14,3.72,3.72,0,0,1-.62.06"/><path class="cls-4" d="M55.25,26.84a.16.16,0,0,1-.15-.09L54,23.41a.23.23,0,0,1,0-.12s0-.06.09-.06h.24c.06,0,.09,0,.12.09l1,3.05.85-3.05a.14.14,0,0,1,.15-.09h.27a.16.16,0,0,1,.15.09l.86,3.05,1-3.08c0-.06.06-.09.12-.09H59c.06,0,.09,0,.09.06a.23.23,0,0,1,0,.12l-1.19,3.35a.14.14,0,0,1-.14.08h-.24a.18.18,0,0,1-.15-.08l-.86-3.06-.86,3.06a.14.14,0,0,1-.15.08h-.2"/><path class="cls-5" d="M60,26.46a1.8,1.8,0,0,0,2.49,0A2.14,2.14,0,0,0,62.89,25a2,2,0,0,0-.44-1.42,1.77,1.77,0,0,0-2.49,0A2.1,2.1,0,0,0,59.52,25,2,2,0,0,0,60,26.46ZM62.45,25c0,1-.42,1.54-1.25,1.54S60,26.07,60,25s.41-1.54,1.24-1.54S62.45,24,62.45,25Z"/><path class="cls-4" d="M63.93,26.84a.11.11,0,0,1-.12-.11V23.35a.11.11,0,0,1,.12-.12h.15c.09,0,.12,0,.12.12l0,.41a1.4,1.4,0,0,1,1.12-.53h.18a.11.11,0,0,1,.12.12v.18s0,0,0,0,0,0-.06,0h-.27a1.3,1.3,0,0,0-.59.12,1.75,1.75,0,0,0-.5.39v2.64a.11.11,0,0,1-.12.11h-.15"/><path class="cls-4" d="M66.39,26.84a.11.11,0,0,1-.12-.11v-5.1a.11.11,0,0,1,.12-.12h.2a.11.11,0,0,1,.12.12v3.2l1.72-1.54a.22.22,0,0,1,.18-.06h.27c.06,0,.08,0,.08.06s0,.06-.08.12L67.13,25,69,26.7s.06.05.06.08,0,.06-.09.06H68.7a.23.23,0,0,1-.15-.06l-1.84-1.71v1.66a.11.11,0,0,1-.12.11h-.2"/></g><path class="cls-6" d="M12.69,46.34l-.32-1H10.88l-.29,1h-1L11.14,42h1l1.53,4.35ZM11.1,44.68h1.1l-.55-1.83Zm5.25,1.66-.07-.27a1.36,1.36,0,0,1-.93.35,1.14,1.14,0,0,1-.68-.2,1.36,1.36,0,0,1-.47-.56,2.08,2.08,0,0,1-.16-.89,1.86,1.86,0,0,1,.37-1.23,1.21,1.21,0,0,1,1-.47,1.47,1.47,0,0,1,.87.27V41.72h.92v4.62Zm-.7-.63a1,1,0,0,0,.57-.17V43.87a1.3,1.3,0,0,0-.63-.15.51.51,0,0,0-.49.25,1.27,1.27,0,0,0-.16.75,1.24,1.24,0,0,0,.18.74A.57.57,0,0,0,15.65,45.71Zm3.17.63-1.21-3.21h1l.68,2.39L20,43.13h.94l-1.21,3.21Zm4.39,0-.07-.27a1.38,1.38,0,0,1-.45.27,1.16,1.16,0,0,1-.49.1,1.08,1.08,0,0,1-.75-.25A1,1,0,0,1,21.33,45a.88.88,0,0,1,.43-.35,1.78,1.78,0,0,1,.67-.14,2.77,2.77,0,0,1,.67.08v-.32a.49.49,0,0,0-.12-.39.61.61,0,0,0-.43-.1,3.52,3.52,0,0,0-1.14.2v-.61a2.93,2.93,0,0,1,.59-.19,4.17,4.17,0,0,1,.71-.08,1.43,1.43,0,0,1,.94.25,1.09,1.09,0,0,1,.29.83v2.21Zm-.76-.51a.81.81,0,0,0,.31-.06,1,1,0,0,0,.32-.19V45c-.18,0-.36,0-.49,0-.37,0-.55.14-.55.43a.37.37,0,0,0,.1.29A.4.4,0,0,0,22.45,45.83Zm4.41.51v-2.1a.5.5,0,0,0-.12-.37.45.45,0,0,0-.35-.12,1.36,1.36,0,0,0-.69.22v2.37h-.92V43.13h.75l.1.35a1.92,1.92,0,0,1,1.19-.43,1,1,0,0,1,.69.23,1,1,0,0,1,.23.69v2.37ZM31,46.2a2.19,2.19,0,0,1-.41.16,2.12,2.12,0,0,1-.49.06A1.54,1.54,0,0,1,28.88,46a1.77,1.77,0,0,1-.41-1.24,1.66,1.66,0,0,1,.43-1.23,1.61,1.61,0,0,1,1.18-.45,1.82,1.82,0,0,1,.84.19v.61a2.21,2.21,0,0,0-.69-.1.85.85,0,0,0-.64.22,1,1,0,0,0-.2.71v.09a1,1,0,0,0,.2.71.76.76,0,0,0,.62.21,2.46,2.46,0,0,0,.71-.11v.6ZM32.29,45a.85.85,0,0,0,.26.61,1.13,1.13,0,0,0,.7.17,3.84,3.84,0,0,0,1-.15v.6a1.64,1.64,0,0,1-.53.18,3.11,3.11,0,0,1-.62.06A1.61,1.61,0,0,1,31.86,46a1.82,1.82,0,0,1-.41-1.28,1.84,1.84,0,0,1,.41-1.25A1.54,1.54,0,0,1,33,43a1.32,1.32,0,0,1,1,.35,1.41,1.41,0,0,1,.33,1,1.83,1.83,0,0,1,0,.32c0,.11,0,.21,0,.29ZM33,43.68a.62.62,0,0,0-.49.17.83.83,0,0,0-.2.53h1.24v-.1C33.51,43.87,33.33,43.68,33,43.68Zm4.17,2.66-.08-.27a1.32,1.32,0,0,1-.92.35,1.14,1.14,0,0,1-.68-.2,1.36,1.36,0,0,1-.47-.56,2.08,2.08,0,0,1-.16-.89,1.86,1.86,0,0,1,.37-1.23,1.21,1.21,0,0,1,1-.47,1.42,1.42,0,0,1,.86.27V41.72H38v4.62Zm-.68-.63a1,1,0,0,0,.57-.17V43.87a1.3,1.3,0,0,0-.63-.15.51.51,0,0,0-.49.25,1.27,1.27,0,0,0-.16.75,1.24,1.24,0,0,0,.18.74A.56.56,0,0,0,36.47,45.71Z"/><path class="cls-5" d="M71.11,64.44A5.57,5.57,0,0,1,70,64.32,4.17,4.17,0,0,1,69,64a.28.28,0,0,1-.16-.29v-.2c0-.12.06-.18.16-.18h.09l.18.06a6.08,6.08,0,0,0,1.82.32A2.55,2.55,0,0,0,73,63.06a2.85,2.85,0,0,0,.61-2v-.69a4.34,4.34,0,0,1-1.15.69,3.24,3.24,0,0,1-1.21.25,2.68,2.68,0,0,1-2.16-1,3.83,3.83,0,0,1-.82-2.55,4.1,4.1,0,0,1,.81-2.68,2.71,2.71,0,0,1,2.2-1,3.34,3.34,0,0,1,2.34.94l.06-.52a.22.22,0,0,1,.24-.21h.28a.19.19,0,0,1,.21.21v6.53a3.49,3.49,0,0,1-.84,2.52A3.28,3.28,0,0,1,71.11,64.44ZM22.2,61.59a3,3,0,0,1-2.4-1,4.84,4.84,0,0,1,0-5.51,3,3,0,0,1,2.4-1,3,3,0,0,1,2.4,1,4.84,4.84,0,0,1,0,5.51A3,3,0,0,1,22.2,61.59Zm-6.86-.05a4.38,4.38,0,0,1-3.4-1.27,5.33,5.33,0,0,1-1.15-3.72A5.27,5.27,0,0,1,12,52.82a4.48,4.48,0,0,1,3.43-1.28,6.41,6.41,0,0,1,2,.31.32.32,0,0,1,.13.08.4.4,0,0,1,0,.18v.31c0,.12-.06.19-.17.19a2.61,2.61,0,0,1-.41-.09,5.41,5.41,0,0,0-.73-.13,5.27,5.27,0,0,0-.76,0,3.76,3.76,0,0,0-2.87,1,4.28,4.28,0,0,0-1,3v.35q0,4,3.73,4a6.83,6.83,0,0,0,1.79-.24,1.41,1.41,0,0,1,.34-.07c.11,0,.17.06.17.18v.31a.3.3,0,0,1-.05.18.21.21,0,0,1-.12.08A6.77,6.77,0,0,1,15.34,61.54Zm9.29-3.7c0,2-.81,3-2.43,3s-2.43-1-2.43-3,.81-3,2.43-3S24.63,55.84,24.63,57.84Zm2.87,3.54c-.15,0-.22-.07-.22-.21V54.53c0-.14.07-.21.22-.21h.28a.22.22,0,0,1,.24.21l.05.6a5.75,5.75,0,0,1,1.45-.76A4.56,4.56,0,0,1,31,54.11a1.9,1.9,0,0,1,2.11,2.13v4.93a.19.19,0,0,1-.21.21h-.38a.19.19,0,0,1-.21-.21V56.58A2.08,2.08,0,0,0,32,55.25a1.43,1.43,0,0,0-1.13-.41,4.87,4.87,0,0,0-2.73.89v5.44c0,.14-.07.21-.22.21Zm8.43.1a6,6,0,0,0,1.11.11A2.93,2.93,0,0,0,38.93,61a1.85,1.85,0,0,0,.7-1.51,1.58,1.58,0,0,0-.36-1.06,2.69,2.69,0,0,0-1.15-.73L37,57.32a3.46,3.46,0,0,1-1.07-.56,1,1,0,0,1-.28-.74,1,1,0,0,1,.39-.89,1.91,1.91,0,0,1,1.16-.31,6,6,0,0,1,1.54.24,1.46,1.46,0,0,0,.35.07c.1,0,.16-.06.16-.18v-.21a.27.27,0,0,0-.17-.28,4.89,4.89,0,0,0-1.84-.35,2.61,2.61,0,0,0-1.71.54,1.76,1.76,0,0,0-.65,1.41,1.93,1.93,0,0,0,1.5,1.84l1.28.48a2.64,2.64,0,0,1,.92.5.88.88,0,0,1,.27.65,1.18,1.18,0,0,1-.45,1,2.1,2.1,0,0,1-1.3.34,6.05,6.05,0,0,1-1.66-.23l-.4-.13-.13,0a.15.15,0,0,0-.16.17v.24a.28.28,0,0,0,.17.28A5.45,5.45,0,0,0,35.93,61.48Zm7.28.11A2.08,2.08,0,0,1,41.65,61a2.18,2.18,0,0,1-.54-1.6V54.53a.19.19,0,0,1,.21-.21h.38a.19.19,0,0,1,.21.21v4.58a2,2,0,0,0,.36,1.34,1.38,1.38,0,0,0,1.11.41,4,4,0,0,0,1.29-.21A5.47,5.47,0,0,0,46,60V54.53a.19.19,0,0,1,.21-.21h.38a.19.19,0,0,1,.21.21v6.64a.19.19,0,0,1-.21.21h-.28a.22.22,0,0,1-.24-.21L46,60.61A4.63,4.63,0,0,1,43.21,61.59Zm6-.5a1.17,1.17,0,0,0,.88.33,2.76,2.76,0,0,0,.54-.05.21.21,0,0,0,.18-.22v-.26a.18.18,0,0,0-.2-.2l-.17,0H50.3a.55.55,0,0,1-.43-.13.61.61,0,0,1-.12-.43v-9a.19.19,0,0,0-.21-.21h-.38a.19.19,0,0,0-.21.21v9A1.27,1.27,0,0,0,49.26,61.09Zm5.37.37A1.67,1.67,0,0,1,53.37,61a1.74,1.74,0,0,1-.44-1.28V55h-1.1a.19.19,0,0,1-.22-.21v-.14a.26.26,0,0,1,0-.17s.08-.06.17-.07l1.13-.1.1-1.85a.27.27,0,0,1,.06-.16.25.25,0,0,1,.15,0h.25a.19.19,0,0,1,.21.21v1.84h2a.19.19,0,0,1,.21.21v.28a.19.19,0,0,1-.21.21h-2V59.7a1.12,1.12,0,0,0,.25.81,1.16,1.16,0,0,0,.82.24,3.82,3.82,0,0,0,.72-.07l.25,0,.13,0c.1,0,.15.06.15.17V61c0,.16,0,.26-.15.29A4.1,4.1,0,0,1,54.63,61.46Zm3-.29a.19.19,0,0,0,.21.21h.38a.19.19,0,0,0,.21-.21V54.53a.19.19,0,0,0-.21-.21h-.38a.19.19,0,0,0-.21.21ZM58,52.8a.57.57,0,0,1-.44-.17.65.65,0,0,1-.16-.45.69.69,0,0,1,.16-.45.6.6,0,0,1,.44-.16.61.61,0,0,1,.45.16.69.69,0,0,1,.16.45.65.65,0,0,1-.16.45A.57.57,0,0,1,58,52.8Zm2.64,8.37c0,.14.07.21.22.21h.37c.15,0,.22-.07.22-.21V55.73a4.87,4.87,0,0,1,2.73-.89,1.43,1.43,0,0,1,1.13.41,2.08,2.08,0,0,1,.35,1.33v4.59a.19.19,0,0,0,.21.21h.38a.19.19,0,0,0,.21-.21V56.24a1.9,1.9,0,0,0-2.11-2.13,4.56,4.56,0,0,0-1.47.26,5.75,5.75,0,0,0-1.45.76l0-.6a.22.22,0,0,0-.24-.21h-.28c-.15,0-.22.07-.22.21Zm13-1.52a3.51,3.51,0,0,1-2.17.9,2.14,2.14,0,0,1-1.74-.72,3.21,3.21,0,0,1-.6-2.1,3.48,3.48,0,0,1,.57-2.16,2,2,0,0,1,1.7-.73,2.85,2.85,0,0,1,1.13.22,4,4,0,0,1,1.11.69Z"/><path class="cls-5" d="M44.61,75.1a3.19,3.19,0,0,0,2.51.94,5.23,5.23,0,0,0,2.22-.47.29.29,0,0,0,.16-.3v-.21a.21.21,0,0,0,0-.12.12.12,0,0,0-.1,0,1.45,1.45,0,0,0-.25.07,5.19,5.19,0,0,1-1.92.35,2.48,2.48,0,0,1-2-.7,3.21,3.21,0,0,1-.65-2.17h4.76a.23.23,0,0,0,.24-.21,4.43,4.43,0,0,0,.06-.85A2.93,2.93,0,0,0,49,69.29a2.55,2.55,0,0,0-2-.73,3,3,0,0,0-2.38,1,4,4,0,0,0-.85,2.74A4.13,4.13,0,0,0,44.61,75.1ZM20.77,76a2.11,2.11,0,0,1-1.54-.56A2,2,0,0,1,18.66,74a2,2,0,0,1,.71-1.61,2.87,2.87,0,0,1,1.91-.59,7.1,7.1,0,0,1,2,.32V70.89a1.61,1.61,0,0,0-.4-1.23,2,2,0,0,0-1.35-.37,6.84,6.84,0,0,0-2.05.35.76.76,0,0,1-.21,0c-.1,0-.14-.07-.14-.19v-.22a.3.3,0,0,1,0-.18.32.32,0,0,1,.14-.1,6.36,6.36,0,0,1,2.34-.44,2.79,2.79,0,0,1,1.84.52,2,2,0,0,1,.59,1.57v5a.19.19,0,0,1-.21.21h-.29a.21.21,0,0,1-.23-.21L23.3,75A4,4,0,0,1,20.77,76Zm-9.7-.37a.19.19,0,0,0,.21.21h.38a.19.19,0,0,0,.21-.21V71.88h2.55a2.92,2.92,0,0,0,2.13-.79,3.19,3.19,0,0,0,0-4.2,2.92,2.92,0,0,0-2.13-.79H11.28a.19.19,0,0,0-.21.21ZM16.47,69a1.86,1.86,0,0,1-2.08,2.13H11.87V66.85h2.52A1.87,1.87,0,0,1,16.47,69ZM22,75a3.33,3.33,0,0,1-1.15.22,1.43,1.43,0,0,1-1-.34,1.3,1.3,0,0,1-.35-1c0-1,.66-1.52,2-1.52a7,7,0,0,1,1.82.26v1.75A6.25,6.25,0,0,1,22,75Zm4.43.79a.19.19,0,0,1-.22-.21V69a.19.19,0,0,1,.22-.21h.26A.21.21,0,0,1,27,69l.07.82a3.61,3.61,0,0,1,1-.84,2.67,2.67,0,0,1,1.16-.24h.36a.2.2,0,0,1,.21.23v.34a.15.15,0,0,1,0,.11.16.16,0,0,1-.11,0h-.51a2.73,2.73,0,0,0-1.14.23,3.06,3.06,0,0,0-1,.78v5.16c0,.14-.07.21-.22.21ZM32,75.48a1.71,1.71,0,0,0,1.26.44,4.1,4.1,0,0,0,1.27-.18q.15-.06.15-.3v-.21c0-.11-.05-.17-.15-.17l-.14,0-.24,0a3.14,3.14,0,0,1-.72.07A1.15,1.15,0,0,1,32.6,75a1.08,1.08,0,0,1-.25-.81V69.48h2a.19.19,0,0,0,.21-.22V69a.19.19,0,0,0-.21-.21h-2V66.93a.19.19,0,0,0-.21-.21h-.25a.21.21,0,0,0-.15,0,.3.3,0,0,0-.06.16l-.1,1.85-1.14.1a.3.3,0,0,0-.17.07.39.39,0,0,0,0,.17v.14a.19.19,0,0,0,.21.22h1.11v4.71A1.78,1.78,0,0,0,32,75.48Zm4.38.35a.19.19,0,0,1-.21-.21V69a.19.19,0,0,1,.21-.21h.28a.21.21,0,0,1,.24.21l0,.6a6.06,6.06,0,0,1,1.45-.75,4.37,4.37,0,0,1,1.47-.27,2.12,2.12,0,0,1,1.57.54A2.16,2.16,0,0,1,42,70.69v4.93a.19.19,0,0,1-.21.21h-.38a.19.19,0,0,1-.21-.21V71a2,2,0,0,0-.35-1.32,1.38,1.38,0,0,0-1.12-.42,4.84,4.84,0,0,0-2.74.9v5.43a.19.19,0,0,1-.21.21Zm12.48-4c0-.13,0-.28,0-.46a2.12,2.12,0,0,0-.49-1.53,1.88,1.88,0,0,0-1.44-.52c-1.48,0-2.26.84-2.35,2.51Zm2.55,3.83a.19.19,0,0,0,.22.21H52c.15,0,.22-.07.22-.21V70.46a3.06,3.06,0,0,1,1-.78,2.73,2.73,0,0,1,1.14-.23h.51a.14.14,0,0,0,.11,0,.15.15,0,0,0,0-.11V69a.2.2,0,0,0-.21-.23H54.4a2.7,2.7,0,0,0-1.16.24,3.61,3.61,0,0,0-1.05.84L52.12,69a.21.21,0,0,0-.24-.21h-.26a.19.19,0,0,0-.22.21Z"/></svg>