<svg id="Layer_1" data-name="Layer 1" xmlns="http://www.w3.org/2000/svg" viewBox="0 0 84 90"><defs><style>.cls-1{fill:#fff;opacity:0.05;}.cls-2{fill:#dfe9f2;}.cls-3{fill:#4c6572;}.cls-4{fill:#d3dde6;}.cls-5{fill:#415464;}.cls-6{fill:#8da2b2;}.cls-7{fill:#344553;}</style></defs><rect class="cls-1" width="84" height="90"/><path class="cls-2" d="M22.06,67.49c1.24,0,2.46,0,3.67,0a2.72,2.72,0,0,1,2.39,2.16,2.67,2.67,0,0,1-1.31,2.94,3.17,3.17,0,0,1-1.7.46c-.51,0-1,0-1.58,0v3.45H22.06Zm1.41,4.19c.68,0,1.34,0,2,0a1.48,1.48,0,0,0,1.26-1.18A1.43,1.43,0,0,0,25.91,69a5.43,5.43,0,0,0-2.44-.13Z"/><path class="cls-2" d="M29.9,72.09l-1-.72a2.5,2.5,0,0,1,.27-.38,3.7,3.7,0,0,1,4.27-.32,2.06,2.06,0,0,1,.89,1.55c0,1.42,0,2.85,0,4.3H33l-.09-.62a7.08,7.08,0,0,1-.68.51,2.31,2.31,0,0,1-2.59,0,2,2,0,0,1-.93-2.2,2,2,0,0,1,1.61-1.54,3.63,3.63,0,0,1,2.14,0l.42.09a1.17,1.17,0,0,0-.72-1.28A1.91,1.91,0,0,0,29.9,72.09Zm3,1.83a2.73,2.73,0,0,0-.74-.27,2.07,2.07,0,0,0-1.66.25.87.87,0,0,0,.24,1.57A1.62,1.62,0,0,0,32.87,73.92Z"/><path class="cls-2" d="M58.24,73.76H53.38a1.69,1.69,0,0,0,1.21,1.6,1.89,1.89,0,0,0,2.3-.9l1.18.58a3,3,0,0,1-1.82,1.55,3.18,3.18,0,0,1-4.19-2.22,3.22,3.22,0,0,1,2.24-4.12,2.91,2.91,0,0,1,3.83,2.49C58.17,73.05,58.2,73.36,58.24,73.76Zm-1.53-1.09A1.51,1.51,0,0,0,55,71.34a1.41,1.41,0,0,0-1.4,1.33Z"/><path class="cls-2" d="M46.69,76.56H45.52a1.6,1.6,0,0,1-.27,0V70.36h1.32l0,.79a5.66,5.66,0,0,1,.57-.54,2.58,2.58,0,0,1,2.31-.36,2,2,0,0,1,1.46,2c0,1.42,0,2.85,0,4.31H49.59c0-.16,0-.32,0-.49,0-1.06,0-2.12,0-3.18,0-.8-.26-1.17-.9-1.35a1.41,1.41,0,0,0-1.65.66,2.14,2.14,0,0,0-.28,1c0,.92,0,1.83,0,2.75C46.68,76.06,46.69,76.27,46.69,76.56Z"/><path class="cls-2" d="M15.71,58.41H12.93v-1H16.7a3.54,3.54,0,0,1-2.46,4.26A4.18,4.18,0,0,1,9.09,59.6a4.3,4.3,0,0,1,1.16-5.25,4.16,4.16,0,0,1,5.47.32l-.6.68c-1.83-1.12-3.23-1.15-4.42,0a3.24,3.24,0,0,0-.64,3.85A3,3,0,0,0,13.6,60.8,2.44,2.44,0,0,0,15.71,58.41Z"/><path class="cls-2" d="M44.36,70.29v1.28h-1.5c0,1.08,0,2.09,0,3.1a.72.72,0,0,0,.91.73,2.89,2.89,0,0,0,.35-.1l.42,1.17a2.16,2.16,0,0,1-2.68-.35,2.08,2.08,0,0,1-.48-1.47c0-1,0-1.91,0-2.87a.77.77,0,0,0,0-.19h-1V70.35l1-.07V68.44h1.47v1.85Z"/><path class="cls-2" d="M30.43,62.72l.85-.39c.79,1,1.52,1.28,2.46.88a1.7,1.7,0,0,0,.92-2,6.6,6.6,0,0,1-1.46.6,2.41,2.41,0,0,1-2.72-1.52,3.06,3.06,0,0,1,.4-3.37,2.39,2.39,0,0,1,3.28-.51l.48.33.15-.57.43,0h.51V57c0,1.52,0,3,0,4.57A2.62,2.62,0,0,1,33,64.34,2.48,2.48,0,0,1,30.43,62.72Zm4.29-3.81a2.89,2.89,0,0,0,0-.52A1.71,1.71,0,0,0,33.43,57a1.58,1.58,0,0,0-1.64.44,2.19,2.19,0,0,0,0,2.92,1.67,1.67,0,0,0,2.47,0A2,2,0,0,0,34.72,58.91Z"/><path class="cls-2" d="M74.34,56.82V53.68h1v8h-.92l-.09-.51c-.06,0-.12,0-.15,0a2.32,2.32,0,0,1-2.62.53,2.64,2.64,0,0,1-1.7-2.27,2.91,2.91,0,0,1,1.18-3,2.39,2.39,0,0,1,3,.09ZM74.47,59l-.09,0c0-.17,0-.35,0-.52a1.7,1.7,0,0,0-2.75-1.07,2.15,2.15,0,0,0,.19,3.36,1.62,1.62,0,0,0,2.24-.5A7.21,7.21,0,0,0,74.47,59Z"/><path class="cls-2" d="M54,59.74l.63.66c-1,1.64-4,2-5.78.61a4.41,4.41,0,0,1-.37-6.32c1.85-1.82,4.83-1.47,5.94.11l-.69.64A3.16,3.16,0,0,0,50,54.81a4.23,4.23,0,0,0-1.07.9,3.39,3.39,0,0,0,.35,4.37A3.31,3.31,0,0,0,54,59.74Z"/><path class="cls-2" d="M60.52,76.53H59.08V70.35h1.31l.06.85a2.85,2.85,0,0,1,1.25-.94,2,2,0,0,1,1.52.08l-.36,1.21h-.53a1.58,1.58,0,0,0-1.79,1.62c0,.9,0,1.79,0,2.69Z"/><path class="cls-2" d="M43.24,60l.76.3a2,2,0,0,1-1.74,1.52,2.74,2.74,0,0,1-3-1.42,3.21,3.21,0,0,1,.48-3.62,2.59,2.59,0,0,1,2.76-.68,2.5,2.5,0,0,1,1.81,2.25,6.74,6.74,0,0,1,0,.78H40a1.76,1.76,0,0,0,1.38,1.71A1.65,1.65,0,0,0,43.24,60Zm-.12-1.79a1.41,1.41,0,0,0-1.43-1.3,1.57,1.57,0,0,0-1.59,1.3Z"/><path class="cls-2" d="M37.1,76.63H35.74V70.44H37v1a2.4,2.4,0,0,1,2.5-1.17v1.41c-.21,0-.43,0-.65,0a1.64,1.64,0,0,0-1.73,1.66c0,.78,0,1.57,0,2.36Z"/><path class="cls-2" d="M60.34,61.88A2.94,2.94,0,1,1,63.22,59,2.79,2.79,0,0,1,60.34,61.88Zm-1.76-3a2.24,2.24,0,0,0,0,.45,1.82,1.82,0,0,0,1.35,1.53,1.67,1.67,0,0,0,1.8-.61,2.19,2.19,0,0,0,0-2.69,1.71,1.71,0,0,0-2.68,0A1.66,1.66,0,0,0,58.58,58.91Z"/><path class="cls-2" d="M26.55,61.88a2.94,2.94,0,0,1,0-5.87,2.83,2.83,0,0,1,2.84,2.93A2.79,2.79,0,0,1,26.55,61.88Zm-1.77-2.8a.68.68,0,0,0,0,.23,1.82,1.82,0,0,0,1.31,1.56A1.66,1.66,0,0,0,28,60.26a2.18,2.18,0,0,0-.06-2.69,1.71,1.71,0,0,0-2.63,0A1.93,1.93,0,0,0,24.78,59.08Z"/><path class="cls-2" d="M20.28,61.88a2.79,2.79,0,0,1-2.88-2.94,2.86,2.86,0,1,1,5.72,0A2.79,2.79,0,0,1,20.28,61.88Zm1.77-3a2.29,2.29,0,0,0,0-.37A1.85,1.85,0,0,0,20.69,57a1.65,1.65,0,0,0-1.74.54,2.16,2.16,0,0,0,.19,3,1.72,1.72,0,0,0,2.25,0A1.83,1.83,0,0,0,22.05,58.93Z"/><path class="cls-2" d="M64.13,56.22h1v2.7a6.58,6.58,0,0,0,0,.89,1.17,1.17,0,0,0,1,1.1,1.36,1.36,0,0,0,1.36-.55,1.81,1.81,0,0,0,.33-1.13c0-.79,0-1.59,0-2.39v-.62H69c0,.16,0,.28,0,.4v5.06l-.94,0-.16-.49a.81.81,0,0,0-.22.07,2.38,2.38,0,0,1-1.65.58A1.9,1.9,0,0,1,64.14,60C64.09,58.77,64.13,57.52,64.13,56.22Z"/><path class="cls-2" d="M56.58,61.69h-1v-8h.89A77.21,77.21,0,0,1,56.58,61.69Z"/><path class="cls-2" d="M37.94,61.68H37v-8h.95Z"/><path class="cls-3" d="M51.53,16.84a10.92,10.92,0,0,1,3,3.62c.47.85.77,1.8,1.18,2.69a1.87,1.87,0,0,0,.5.75A9.75,9.75,0,0,1,60.05,30a9.88,9.88,0,0,1-2.52,8.85A10,10,0,0,1,52,42a10.94,10.94,0,0,1-2.07.23c-2.44,0-7.78-.1-7.78-.1l0-6.18h7.44A4.28,4.28,0,0,0,53,34.41,3.78,3.78,0,0,0,53,29.49a4,4,0,0,0-3-1.39c0-.36,0-.67,0-1a6.16,6.16,0,0,0-.42-2.41,9,9,0,0,0-2.48-3.55l.81-.78Z"/><path class="cls-4" d="M28.2,40.06a9.33,9.33,0,0,1-3.83-6,9.67,9.67,0,0,1,2.22-8.6,22.34,22.34,0,0,1,2-1.87l.15-.2h0l1-.49a10.51,10.51,0,0,1,6.8-.85,10.12,10.12,0,0,1,5.79,3.66l-4.49,4.46c-.29-.31-.61-.74-1-1.1a3.84,3.84,0,0,0-4.6-.32,3.9,3.9,0,0,0-1.62,4.39,4.44,4.44,0,0,0,2.11,2.45Z"/><path class="cls-5" d="M36.56,22a10.51,10.51,0,0,0-6.8.85l-1,.49a5.38,5.38,0,0,1,.22-1,13.79,13.79,0,0,1,10.77-8.92A13.59,13.59,0,0,1,50.54,16a10.22,10.22,0,0,1,1,.88L47.9,20.39l-.81.78a1.8,1.8,0,0,1-.34-.17,7.51,7.51,0,0,0-5.26-1.43A7,7,0,0,0,36.56,22Z"/><path class="cls-6" d="M28.2,40.06l4.55-4.48a8.66,8.66,0,0,0,2.63.36c2.26,0,4.53,0,6.79,0l0,6.18c-2.92,0-5.84,0-8.76,0A8.54,8.54,0,0,1,28.2,40.06Z"/><path class="cls-7" d="M28.75,23.37l-.15.2Z"/></svg>