<svg id="Layer_1" data-name="Layer 1" xmlns="http://www.w3.org/2000/svg" viewBox="0 0 84 90"><defs><style>.cls-1,.cls-7{fill:#fff;}.cls-1{opacity:0.05;}.cls-2{fill:#dfe9f2;}.cls-3{fill:#4c6572;}.cls-4{fill:#415464;}.cls-5{fill:#8da2b2;}.cls-6{fill:#d3dde6;}</style></defs><rect class="cls-1" width="84" height="90"/><g id="Page-1"><g id="Partnering-for-your-success-"><g id="gold-microsoft-partner"><g id="Layer_1-2" data-name="Layer 1-2"><path id="Shape" class="cls-2" d="M20,29.3l-4.06,9.19a1.65,1.65,0,0,1-.73,0L11,29.14l-.15.05v9.3H9.52V26.68h1.85l4.2,9.55,4.28-9.55h1.74V38.49a4.79,4.79,0,0,1-1.31,0V29.34Zm.16-.54c.08.11-.19.27,0,.35.12-.08.08-.24,0-.35S20.16,28.8,20.16,28.76Z"/><path id="Shape-2" class="cls-2" d="M23.48,54.88V43a29.43,29.43,0,0,1,4.5.13,3.06,3.06,0,0,1,2.66,2.6,3.68,3.68,0,0,1-1.35,3.81,4.61,4.61,0,0,1-2.6.87,8.51,8.51,0,0,0-1.82.08v4.38A3.82,3.82,0,0,1,23.48,54.88Zm1.42-5.82A7.44,7.44,0,0,0,27.56,49a2.24,2.24,0,0,0,1.73-2.42,2.12,2.12,0,0,0-1.81-2.2,12.08,12.08,0,0,0-2.55,0v4.73Z"/><path id="Shape-3" class="cls-2" d="M67.89,54.3a5.19,5.19,0,0,1-4.34.54,2.89,2.89,0,0,1-1.89-1.73,5.42,5.42,0,0,1,0-4.81,3.63,3.63,0,0,1,3.48-2.17,3.19,3.19,0,0,1,3.19,2.61A8.87,8.87,0,0,1,68.49,51h-5.8a2.61,2.61,0,0,0,2.23,2.93,2.73,2.73,0,0,0,.7,0A4.84,4.84,0,0,0,68,53v1.31Zm-5.32-4.52h4.48c0-1.39-.62-2.23-1.74-2.39C63.88,47.25,62.89,48.1,62.57,49.78Z"/><path id="Shape-4" class="cls-2" d="M36.38,49.49a1.69,1.69,0,0,0-.08-1,1.44,1.44,0,0,0-1.39-1.15,3.38,3.38,0,0,0-2.15.46L32,48.3V46.94a5.79,5.79,0,0,1,3.48-.73,2.49,2.49,0,0,1,2.31,2.5v6.17a6.42,6.42,0,0,1-1.24,0c-.15-.35,0-.7-.12-1-.19,0-.22.11-.3.19a3,3,0,0,1-2.93,1,2.27,2.27,0,0,1-2-1.83,2.48,2.48,0,0,1,1-2.77A3.28,3.28,0,0,1,33.72,50Zm0,1.12a12.9,12.9,0,0,0-3,.5,1.34,1.34,0,0,0-.92,1.46,1.36,1.36,0,0,0,1.07,1.27,2.18,2.18,0,0,0,2.61-1.27,3.17,3.17,0,0,0,.21-1.92Z"/><path id="Shape-5" class="cls-2" d="M63.69,34.2a4.53,4.53,0,0,1-1,3.11,4.24,4.24,0,0,1-4.66,1.18,3.82,3.82,0,0,1-2.7-3.31A5.81,5.81,0,0,1,55.45,33a4.14,4.14,0,0,1,4.9-3.21h0a3.75,3.75,0,0,1,3.24,3.7A3.94,3.94,0,0,1,63.69,34.2Zm-1.38.14a6.41,6.41,0,0,0-.12-1.23A2.39,2.39,0,0,0,59.77,31,2.54,2.54,0,0,0,57,33a4.76,4.76,0,0,0,0,2.54,2.64,2.64,0,0,0,2.65,2.08,2.52,2.52,0,0,0,2.54-2.16,7,7,0,0,0,.12-1.12Z"/><path id="Shape-6" class="cls-2" d="M48.06,34.27a5.52,5.52,0,0,1-.34,2,3.86,3.86,0,0,1-3.4,2.46,4.77,4.77,0,0,1-1.46-.08A3.75,3.75,0,0,1,40,35.89a5.34,5.34,0,0,1-.12-2.69c.54-2.78,2.78-3.62,4.9-3.35a3.71,3.71,0,0,1,3.31,3.47A6,6,0,0,1,48.06,34.27Zm-1.38.12q0-.47,0-.93A2.61,2.61,0,0,0,44.4,31a2.66,2.66,0,0,0-3,2.05,4.75,4.75,0,0,0,0,2.31,2.74,2.74,0,0,0,5.38,0,7.13,7.13,0,0,1,0-.92Z"/><path id="Path" class="cls-2" d="M54,47.52c.22,0,.27-.15.38-.27a3.19,3.19,0,0,1,3-1,2.69,2.69,0,0,1,2.27,2.85v5.81a4.22,4.22,0,0,1-1.23,0c-.19-.19-.11-.42-.11-.62V50.37a6.36,6.36,0,0,0-.08-1.23A1.84,1.84,0,0,0,57,47.48a2.13,2.13,0,0,0-2.28.62A2.61,2.61,0,0,0,54,50v4.12a2,2,0,0,1-.08.81H52.63V46.4h1.28C54,46.79,53.91,47.18,54,47.52Z"/><path id="Path-2" class="cls-2" d="M68.85,30a3.76,3.76,0,0,1,0,1.16H67v7.28a5.7,5.7,0,0,1-1.43,0V31.15H64.15a3,3,0,0,1,0-1.11c.43-.16.87,0,1.39-.13V28.38a2.66,2.66,0,0,1,2.66-2.66,2.86,2.86,0,0,1,1,.19,5.15,5.15,0,0,1,0,1.11l-.73-.11a1.28,1.28,0,0,0-1.51,1,1.36,1.36,0,0,0,0,.29,2.44,2.44,0,0,0,0,.54V30h2Z"/><path id="Path-3" class="cls-2" d="M47.2,47.56H45.74V46.45c.42-.16.87,0,1.39-.12a18.53,18.53,0,0,0,.07-2,3.79,3.79,0,0,1,1.31-.42v2.37a13.63,13.63,0,0,0,2.12.11,3.23,3.23,0,0,1,0,1.16H48.55v4.58c0,1.62.5,2,2.12,1.62a4.87,4.87,0,0,1,0,1.08,3,3,0,0,1-1.85.23,1.8,1.8,0,0,1-1.54-1.54,7.37,7.37,0,0,1-.08-1.33Z"/><path id="Path-4" class="cls-2" d="M54,31.55A3.44,3.44,0,0,0,51.9,31a1.2,1.2,0,0,0-1.23.87,1.18,1.18,0,0,0,.66,1.4,5.45,5.45,0,0,0,.76.39,8.55,8.55,0,0,1,1.16.61,2.09,2.09,0,0,1,1.16,2,2.14,2.14,0,0,1-1.47,2,4.44,4.44,0,0,1-3.77-.14V36.83a6.59,6.59,0,0,0,1.66.65,3.61,3.61,0,0,0,1.31,0,1,1,0,0,0,.8-.87,1.05,1.05,0,0,0-.46-1.16c-.31-.19-.61-.34-1-.53s-.77-.39-1.15-.62a2.33,2.33,0,0,1-.89-3.18,2.27,2.27,0,0,1,1-.94,3.86,3.86,0,0,1,3.47,0A7.82,7.82,0,0,1,54,31.55Z"/><path id="Path-5" class="cls-2" d="M72.06,30h2a3.7,3.7,0,0,1,0,1.15h-2V36.5c0,.73.54,1.08,1.31,1a5.63,5.63,0,0,0,.69-.14c.19.11.08.33.08.49v.54a2.83,2.83,0,0,1-2.08.2A2,2,0,0,1,70.7,36.5V32a2,2,0,0,0-.08-.81H69.28a2.13,2.13,0,0,1,0-1.12c.42-.16.87,0,1.34-.11.16-.66,0-1.31.12-2a4.18,4.18,0,0,1,1.35-.38Z"/><path id="Path-6" class="cls-2" d="M33.49,37v1.19A4.36,4.36,0,0,1,28.82,38a4.21,4.21,0,0,1-1.65-4.34,4.3,4.3,0,0,1,4.64-3.9,4.49,4.49,0,0,1,1.68.51v1.19c-.19.08-.31,0-.46-.11a3,3,0,0,0-4.1,1,3,3,0,0,0-.41,1.34,4.49,4.49,0,0,0,.16,1.93,2.82,2.82,0,0,0,3.59,1.74l.3-.12C32.91,37.2,33.14,37,33.49,37Z"/><path id="Path-7" class="cls-3" d="M32.58,68.88V64.12h4.67v4.7a20.32,20.32,0,0,1-2.21.06Z"/><polygon id="Path-8" class="cls-4" points="27.38 64.07 32.01 64.07 32.01 68.78 27.38 68.78 27.38 64.07"/><path id="Path-9" class="cls-5" d="M27.38,69.36h4.67V74H27.38Z"/><path id="Path-10" class="cls-6" d="M37.25,69.4v4.13a.65.65,0,0,1-.08.49c-.12.17-.38.09-.54.09h-4V69.44h4.62Z"/><path id="Path-11" class="cls-2" d="M41.31,54.88H40V46.4a8.42,8.42,0,0,1,1.23,0c.16.43,0,.87.16,1.47.65-1.23,1.53-1.89,3-1.5v1.31c-1.85-.39-2.88.42-3,2.34-.08,1.2,0,2.39,0,3.59v1.27Z"/><path id="Path-12" class="cls-2" d="M36.49,38.49H35.14V30.07a3.83,3.83,0,0,1,1.35,0v1.48c1.09-1.55,1.66-1.85,3-1.51v1.27c-1.74-.38-2.55.16-2.93,1.85a5.64,5.64,0,0,0-.12,1.16Z"/><path id="Path-13" class="cls-2" d="M71.44,54.88H70.13V46.4H71.4c.15.46,0,.93.12,1.51.65-1.27,1.5-2,3-1.58V47.6h-.16a1.92,1.92,0,0,0-2.54,1,2.15,2.15,0,0,0-.15.51,5.86,5.86,0,0,0-.19,1.61Z"/><path id="Path-14" class="cls-7" d="M14.11,17.17a3.42,3.42,0,0,0-1.74-.39,2,2,0,0,0-1.42.69,2.84,2.84,0,0,0-.22,3.32,2.11,2.11,0,0,0,2,.87,1.54,1.54,0,0,0,.86-.27,4.72,4.72,0,0,0,0-1.5c-.38-.19-.76,0-1.15-.16a.58.58,0,0,1,0-.62,11.43,11.43,0,0,1,1.85,0,3.44,3.44,0,0,1,.08,1.39,5.74,5.74,0,0,1,0,1.31,3.29,3.29,0,0,1-4.08-.34,3.72,3.72,0,0,1-.24-3.94,3.3,3.3,0,0,1,4.16-1A.82.82,0,0,1,14.11,17.17Z"/><path id="Path-15" class="cls-2" d="M25.39,38.49H24.17V30.07a4.16,4.16,0,0,1,1.22,0Z"/><path id="Shape-7" class="cls-7" d="M26.83,15.92V22c-.2.27-.39.19-.58.23-.24-.12-.12-.35-.27-.5a4.52,4.52,0,0,1-.51.34,1.67,1.67,0,0,1-2.3-.56v0a.13.13,0,0,0-.08-.11,2.82,2.82,0,0,1,0-2.47A1.82,1.82,0,0,1,25.45,18l0,0a.17.17,0,0,1,.16.07.33.33,0,0,0,.38.15V16A1,1,0,0,1,26.83,15.92Zm-.78,4.19v-.49a1.19,1.19,0,0,0-1-1.18,1.25,1.25,0,0,0-1.36.86,2.14,2.14,0,0,0,0,1.65,1.07,1.07,0,0,0,1,.74A1.13,1.13,0,0,0,25.86,21a1.12,1.12,0,0,0,.19-.87Z"/><path id="Shape-8" class="cls-7" d="M19.65,20.05a2,2,0,0,1-1.77,2.23,1.93,1.93,0,0,1-.34,0,2,2,0,0,1-2.09-1.92,1.71,1.71,0,0,1,0-.32,2.1,2.1,0,0,1,1.93-2.26h.29a2,2,0,0,1,2,2A1.23,1.23,0,0,1,19.65,20.05Zm-.72,0c0-.65-.08-1.27-.81-1.54a1.24,1.24,0,0,0-1.43.27,2.07,2.07,0,0,0-.39,2,1.15,1.15,0,0,0,1.12.92C18.39,21.79,18.93,21.17,18.93,20.05Z"/><path id="Path-16" class="cls-7" d="M21,15.92a.8.8,0,0,1,.66.07v6.08c-.2.23-.39.15-.66.11Z"/><path id="Path-17" class="cls-2" d="M24.78,26.1a.86.86,0,0,1,.92.81.13.13,0,0,1,0,.06,1,1,0,0,1-.93,1,.87.87,0,0,1-.87-.87A1,1,0,0,1,24.78,26.1Z"/></g><path id="Shape-9" class="cls-7" d="M46.25,72.21h-.87V68.66a9.76,9.76,0,0,1,0-1.08h0a1.58,1.58,0,0,1-.18.5L43.6,72.16H43l-1.65-4c-.05-.12-.09-.29-.17-.54h0a9.73,9.73,0,0,1,0,1.08v3.47H40.3V66.71h1.28L43,70.35a6.45,6.45,0,0,1,.21.62h0a3.74,3.74,0,0,1,.25-.66L45,66.68h1.24v5.53ZM48,67.5a.52.52,0,0,1-.38-.13.39.39,0,0,1-.16-.36.46.46,0,0,1,.16-.38.76.76,0,0,1,.38-.16.44.44,0,0,1,.37.16.43.43,0,0,1,.17.38.5.5,0,0,1-.52.49Zm.45,4.71h-.87V68.28h.87Zm4-.17a2.46,2.46,0,0,1-1.12.29,1.93,1.93,0,0,1-1.44-.54,1.87,1.87,0,0,1-.54-1.4,2.22,2.22,0,0,1,.58-1.57,2.11,2.11,0,0,1,1.56-.58,2.28,2.28,0,0,1,1,.21v.87a1.44,1.44,0,0,0-.87-.29,1.3,1.3,0,0,0-.95.37,1.52,1.52,0,0,0,0,1.94,1.14,1.14,0,0,0,.87.33,1.53,1.53,0,0,0,.87-.33Zm3.22-2.89a.74.74,0,0,0-.46-.12.78.78,0,0,0-.66.37,1.67,1.67,0,0,0-.24.95v1.86h-.87V68.28h.87v.79h0a1.15,1.15,0,0,1,.41-.66.84.84,0,0,1,.62-.25,1,1,0,0,1,.37.08v.87Zm2.39,3.14a2,2,0,0,1-1.49-.53A2,2,0,0,1,56,70.31a2,2,0,0,1,.58-1.53,2.08,2.08,0,0,1,1.53-.54,1.85,1.85,0,0,1,1.44.54,2.18,2.18,0,0,1,.54,1.48,2.08,2.08,0,0,1-.58,1.5A2,2,0,0,1,58.06,72.29Zm0-3.39a1,1,0,0,0-.87.37,1.47,1.47,0,0,0-.28,1,1.3,1.3,0,0,0,.33,1,1.23,1.23,0,0,0,1.73,0,1.4,1.4,0,0,0,.29-1,1.48,1.48,0,0,0-.29-1,1.21,1.21,0,0,0-.86-.37Zm2.69,3.19v-.87a1.74,1.74,0,0,0,1.12.37c.53,0,.86-.16.86-.45a.32.32,0,0,0-.08-.21.45.45,0,0,0-.2-.16,1.88,1.88,0,0,0-.3-.12,1.63,1.63,0,0,0-.37-.13,2.28,2.28,0,0,1-.45-.2,2.1,2.1,0,0,1-.33-.26.94.94,0,0,1-.21-.28,1.56,1.56,0,0,1-.08-.42.89.89,0,0,1,.08-.48,1.58,1.58,0,0,1,.37-.36,1.78,1.78,0,0,1,.54-.21,3.2,3.2,0,0,1,.62-.09,2.61,2.61,0,0,1,1,.17v.79a1.62,1.62,0,0,0-1-.3.76.76,0,0,0-.3,0,1.7,1.7,0,0,1-.24.09.28.28,0,0,0-.16.16v.2a.26.26,0,0,0,0,.21.44.44,0,0,0,.16.17l.24.13.34.12a3.82,3.82,0,0,1,.46.21,2.43,2.43,0,0,1,.32.24,1.15,1.15,0,0,1,.21.33,1.25,1.25,0,0,1,.08.42,1.29,1.29,0,0,1-.12.54.81.81,0,0,1-.37.36,1.78,1.78,0,0,1-.54.21,3.74,3.74,0,0,1-.66.09c-.33-.13-.7-.17-1-.33Zm5.45.2a2,2,0,0,1-1.49-.53,2,2,0,0,1-.54-1.45A1.94,1.94,0,0,1,66,68.24h.29a1.85,1.85,0,0,1,1.44.54,2.18,2.18,0,0,1,.54,1.48,1.92,1.92,0,0,1-1.79,2h-.25Zm.06-3.41a1,1,0,0,0-.87.38,1.45,1.45,0,0,0-.29,1,1.33,1.33,0,0,0,.33,1,1,1,0,0,0,.86.37,1.08,1.08,0,0,0,.87-.33,1.54,1.54,0,0,0,.29-1,1.62,1.62,0,0,0-.32-1A1.26,1.26,0,0,0,66.3,68.88Zm5.16-1.73a.61.61,0,0,0-.41-.09c-.46,0-.66.25-.66.75v.53h.87V69h-.87v3.22h-.87V69.07h-.66v-.7h.66v-.7a1.23,1.23,0,0,1,.41-1,1.48,1.48,0,0,1,1-.4,1.91,1.91,0,0,1,.54.08v.79Zm2.6,5a1.67,1.67,0,0,1-.7.12c-.78,0-1.16-.36-1.16-1.07V69h-.69v-.7h.66v-.87l.87-.24v1.15H74v.7H73V71a.68.68,0,0,0,.2.52.62.62,0,0,0,.41.16.63.63,0,0,0,.42-.12v.61Z"/></g></g></g></svg>